<svg width="65" height="65" viewBox="0 0 65 65" fill="none" xmlns="http://www.w3.org/2000/svg">
<rect x="0.666626" y="0.0800781" width="64" height="64" rx="32" fill="#51D59C" fill-opacity="0.1"/>
<rect x="1.16663" y="0.580078" width="63" height="63" rx="31.5" stroke="#B8D8CB" stroke-opacity="0.2"/>
<path d="M41.9999 30.0967L39.6499 27.7467L45.5833 21.8301L47.9333 24.1801C47.7499 24.2301 41.9999 30.0967 41.9999 30.0967ZM34.3333 17.0801H30.9999V25.4134H34.3333V17.0801ZM23.3333 30.0967L25.6833 27.7467L19.7666 21.8134L17.3999 24.1801C17.5833 24.2301 23.3333 30.0967 23.3333 30.0967ZM45.9999 35.4134H40.2999C39.0166 38.3467 36.0666 40.4134 32.6666 40.4134C29.2666 40.4134 26.3166 38.3467 25.0333 35.4134H19.3333V43.7467H45.9999V35.4134ZM45.9999 32.0801C47.8333 32.0801 49.3333 33.5801 49.3333 35.4134V43.7467C49.3333 45.5801 47.8333 47.0801 45.9999 47.0801H19.3333C17.4999 47.0801 15.9999 45.5801 15.9999 43.7467V35.4134C15.9999 33.5801 17.4999 32.0801 19.3333 32.0801H27.6666C27.6666 34.8467 29.8999 37.0801 32.6666 37.0801C35.4333 37.0801 37.6666 34.8467 37.6666 32.0801H45.9999Z" fill="#51D59C"/>
</svg>
