<svg width="80" height="81" viewBox="0 0 80 81" fill="none" xmlns="http://www.w3.org/2000/svg">
<rect y="0.320312" width="80" height="80" rx="40" fill="#51D59C" fill-opacity="0.1"/>
<rect x="0.5" y="0.820312" width="79" height="79" rx="39.5" stroke="#B8D8CB" stroke-opacity="0.2"/>
<path d="M49.3333 24.3953L55.9366 30.9987L49.3333 37.602L42.73 30.9987L49.3333 24.3953ZM31.46 25.5153V34.8487H22.1266V25.5153H31.46ZM54.7933 48.8487V58.182H45.46V48.8487H54.7933ZM31.46 48.8487V58.182H22.1266V48.8487H31.46ZM49.3333 17.792L36.1266 30.9753L49.3333 44.182L62.54 30.9753L49.3333 17.792ZM36.1266 20.8487H17.46V39.5153H36.1266V20.8487ZM59.46 44.182H40.7933V62.8487H59.46V44.182ZM36.1266 44.182H17.46V62.8487H36.1266V44.182Z" fill="#51D59C"/>
</svg>
