<svg width="81" height="81" viewBox="0 0 81 81" fill="none" xmlns="http://www.w3.org/2000/svg">
<rect x="0.5" y="0.320312" width="80" height="80" rx="40" fill="#51D59C" fill-opacity="0.1"/>
<rect x="1" y="0.820312" width="79" height="79" rx="39.5" stroke="#B8D8CB" stroke-opacity="0.2"/>
<path d="M42.8334 37.9871H21.8334C19.2667 37.9871 17.1667 35.8871 17.1667 33.3205V26.3205C17.1667 23.7538 19.2667 21.6538 21.8334 21.6538H42.8334V37.9871ZM21.8334 33.3205H38.1667V26.3205H21.8334V33.3205ZM47.5001 58.9871H21.8334C19.2667 58.9871 17.1667 56.8871 17.1667 54.3205V47.3205C17.1667 44.7538 19.2667 42.6538 21.8334 42.6538H47.5001V58.9871ZM21.8334 54.3205H42.8334V47.3205H21.8334V54.3205ZM63.8334 33.3205H59.1667L63.8334 21.6538H47.5001V37.9871H52.1667V58.9871L63.8334 33.3205ZM23.5834 52.5705H27.0834V49.0705H23.5834V52.5705ZM23.5834 31.5705H27.0834V28.0705H23.5834V31.5705Z" fill="#51D59C"/>
</svg>
