<svg width="80" height="81" viewBox="0 0 80 81" fill="none" xmlns="http://www.w3.org/2000/svg">
<rect y="0.320312" width="80" height="80" rx="40" fill="#51D59C" fill-opacity="0.1"/>
<rect x="0.5" y="0.820312" width="79" height="79" rx="39.5" stroke="#B8D8CB" stroke-opacity="0.2"/>
<path d="M39.9999 27.487C48.8433 27.487 56.7299 32.457 60.5799 40.3203C56.7299 48.1836 48.8433 53.1536 39.9999 53.1536C31.1566 53.1536 23.2699 48.1836 19.4199 40.3203C23.2699 32.457 31.1566 27.487 39.9999 27.487ZM39.9999 22.8203C28.3333 22.8203 18.3699 30.077 14.3333 40.3203C18.3699 50.5636 28.3333 57.8203 39.9999 57.8203C51.6666 57.8203 61.6299 50.5636 65.6666 40.3203C61.6299 30.077 51.6666 22.8203 39.9999 22.8203ZM39.9999 34.487C43.2199 34.487 45.8333 37.1003 45.8333 40.3203C45.8333 43.5403 43.2199 46.1536 39.9999 46.1536C36.7799 46.1536 34.1666 43.5403 34.1666 40.3203C34.1666 37.1003 36.7799 34.487 39.9999 34.487ZM39.9999 29.8203C34.2133 29.8203 29.4999 34.5336 29.4999 40.3203C29.4999 46.107 34.2133 50.8203 39.9999 50.8203C45.7866 50.8203 50.4999 46.107 50.4999 40.3203C50.4999 34.5336 45.7866 29.8203 39.9999 29.8203Z" fill="#51D59C"/>
</svg>
