<svg width="81" height="81" viewBox="0 0 81 81" fill="none" xmlns="http://www.w3.org/2000/svg">
<rect x="0.5" y="0.320312" width="80" height="80" rx="40" fill="#51D59C" fill-opacity="0.1"/>
<rect x="1" y="0.820312" width="79" height="79" rx="39.5" stroke="#B8D8CB" stroke-opacity="0.2"/>
<path d="M45.1666 40.3202L40.4999 44.9869L35.8333 40.3202L40.4999 35.6536L45.1666 40.3202ZM40.4999 26.3202L45.4466 31.2669L51.2799 25.4336L40.4999 14.6536L29.7199 25.4336L35.5533 31.2669L40.4999 26.3202ZM26.4999 40.3202L31.4466 35.3736L25.6133 29.5402L14.8333 40.3202L25.6133 51.1002L31.4466 45.2669L26.4999 40.3202ZM54.4999 40.3202L49.5533 45.2669L55.3866 51.1002L66.1666 40.3202L55.3866 29.5402L49.5533 35.3736L54.4999 40.3202ZM40.4999 54.3202L35.5533 49.3736L29.7199 55.2069L40.4999 65.9869L51.2799 55.2069L45.4466 49.3736L40.4999 54.3202Z" fill="#51D59C"/>
</svg>
