<svg width="80" height="81" viewBox="0 0 80 81" fill="none" xmlns="http://www.w3.org/2000/svg">
<rect y="0.320312" width="80" height="80" rx="40" fill="#51D59C" fill-opacity="0.1"/>
<rect x="0.5" y="0.820312" width="79" height="79" rx="39.5" stroke="#B8D8CB" stroke-opacity="0.2"/>
<path d="M40 16.9868L21.3334 23.9868V38.1968C21.3334 49.9801 29.29 60.9701 40 63.6535C50.71 60.9701 58.6667 49.9801 58.6667 38.1968V23.9868L40 16.9868ZM54 38.1968C54 47.5301 48.05 56.1635 40 58.8001C31.95 56.1635 26 47.5535 26 38.1968V27.2301L40 21.9801L54 27.2301V38.1968ZM40 28.6535C33.56 28.6535 28.3334 33.8801 28.3334 40.3201C28.3334 46.7601 33.56 51.9868 40 51.9868C46.44 51.9868 51.6667 46.7601 51.6667 40.3201C51.6667 33.8801 46.44 28.6535 40 28.6535ZM43.85 45.8035L38.8334 40.7868V33.3201H41.1667V39.8301L45.4834 44.1468L43.85 45.8035Z" fill="#51D59C"/>
</svg>
