<svg width="65" height="65" viewBox="0 0 65 65" fill="none" xmlns="http://www.w3.org/2000/svg">
<rect x="0.333374" y="0.0800781" width="64" height="64" rx="32" fill="#51D59C" fill-opacity="0.1"/>
<rect x="0.833374" y="0.580078" width="63" height="63" rx="31.5" stroke="#B8D8CB" stroke-opacity="0.2"/>
<path d="M44 17.0801H20.6667C18.8334 17.0801 17.3334 18.5801 17.3334 20.4134V43.7467C17.3334 45.5801 18.8334 47.0801 20.6667 47.0801H44C45.8334 47.0801 47.3334 45.5801 47.3334 43.7467V20.4134C47.3334 18.5801 45.8334 17.0801 44 17.0801ZM44 43.7467H20.6667V20.4134H44V43.7467Z" fill="#51D59C"/>
<path d="M27.3334 32.0801H24V40.4134H27.3334V32.0801Z" fill="#51D59C"/>
<path d="M40.6667 23.7467H37.3334V40.4134H40.6667V23.7467Z" fill="#51D59C"/>
<path d="M34 35.4134H30.6667V40.4134H34V35.4134Z" fill="#51D59C"/>
<path d="M34 28.7467H30.6667V32.0801H34V28.7467Z" fill="#51D59C"/>
</svg>
